<svg width="35" height="36" viewBox="0 0 35 36" fill="none" xmlns="http://www.w3.org/2000/svg">
<path d="M17.5 35.5C15.1083 35.5 12.8479 35.0403 10.7188 34.121C8.58958 33.2028 6.7305 31.9487 5.1415 30.3585C3.55133 28.7695 2.29717 26.9104 1.379 24.7812C0.459667 22.6521 0 20.3917 0 18C0 15.5792 0.459667 13.3117 1.379 11.1978C2.29717 9.08258 3.55133 7.2305 5.1415 5.6415C6.7305 4.05133 8.58958 2.79658 10.7188 1.87725C12.8479 0.959083 15.1083 0.5 17.5 0.5C19.9208 0.5 22.1882 0.959083 24.3022 1.87725C26.4174 2.79658 28.2695 4.05133 29.8585 5.6415C31.4487 7.2305 32.7028 9.08258 33.621 11.1978C34.5403 13.3117 35 15.5792 35 18V20.5375C35 22.2583 34.4097 23.7237 33.229 24.9335C32.0472 26.1445 30.5958 26.75 28.875 26.75C27.825 26.75 26.8479 26.5167 25.9438 26.05C25.0396 25.5833 24.2958 24.9708 23.7125 24.2125C22.925 25 21.9993 25.6201 20.9353 26.0728C19.8701 26.5243 18.725 26.75 17.5 26.75C15.0792 26.75 13.0159 25.8966 11.3103 24.1897C9.60342 22.4841 8.75 20.4208 8.75 18C8.75 15.5792 9.60342 13.5153 11.3103 11.8085C13.0159 10.1028 15.0792 9.25 17.5 9.25C19.9208 9.25 21.9847 10.1028 23.6915 11.8085C25.3972 13.5153 26.25 15.5792 26.25 18V20.5375C26.25 21.3833 26.5125 22.0466 27.0375 22.5273C27.5625 23.0091 28.175 23.25 28.875 23.25C29.575 23.25 30.1875 23.0091 30.7125 22.5273C31.2375 22.0466 31.5 21.3833 31.5 20.5375V18C31.5 14.1792 30.1216 10.8903 27.3647 8.1335C24.6091 5.37783 21.3208 4 17.5 4C13.6792 4 10.3903 5.37783 7.6335 8.1335C4.87783 10.8903 3.5 14.1792 3.5 18C3.5 21.8208 4.87783 25.1091 7.6335 27.8647C10.3903 30.6216 13.6792 32 17.5 32H24.5C24.9958 32 25.4112 32.168 25.746 32.504C26.082 32.8388 26.25 33.2542 26.25 33.75C26.25 34.2458 26.082 34.6612 25.746 34.996C25.4112 35.332 24.9958 35.5 24.5 35.5H17.5ZM17.5 23.25C18.9583 23.25 20.1979 22.7396 21.2188 21.7188C22.2396 20.6979 22.75 19.4583 22.75 18C22.75 16.5417 22.2396 15.3021 21.2188 14.2812C20.1979 13.2604 18.9583 12.75 17.5 12.75C16.0417 12.75 14.8021 13.2604 13.7812 14.2812C12.7604 15.3021 12.25 16.5417 12.25 18C12.25 19.4583 12.7604 20.6979 13.7812 21.7188C14.8021 22.7396 16.0417 23.25 17.5 23.25Z" fill="#696563"/>
</svg>
