<svg width="35" height="36" viewBox="0 0 35 36" fill="none" xmlns="http://www.w3.org/2000/svg">
<path d="M17.5 0.5C7.84 0.5 0 8.34 0 18C0 27.66 7.84 35.5 17.5 35.5C27.16 35.5 35 27.66 35 18C35 8.34 27.16 0.5 17.5 0.5ZM25.62 12.4C25.3575 15.165 24.22 21.885 23.6425 24.9825C23.3975 26.295 22.9075 26.7325 22.4525 26.785C21.4375 26.8725 20.6675 26.12 19.6875 25.4725C18.1475 24.4575 17.2725 23.8275 15.785 22.8475C14.0525 21.71 15.1725 21.08 16.17 20.065C16.4325 19.8025 20.9125 15.725 21 15.3575C21.0122 15.3018 21.0105 15.2441 20.9953 15.1892C20.98 15.1343 20.9516 15.0839 20.9125 15.0425C20.8075 14.955 20.6675 14.99 20.545 15.0075C20.3875 15.0425 17.9375 16.67 13.16 19.89C12.46 20.3625 11.83 20.6075 11.27 20.59C10.64 20.5725 9.45 20.24 8.5575 19.9425C7.455 19.5925 6.5975 19.4 6.6675 18.7875C6.7025 18.4725 7.14 18.1575 7.9625 17.825C13.0725 15.6025 16.4675 14.1325 18.165 13.4325C23.03 11.4025 24.0275 11.0525 24.6925 11.0525C24.8325 11.0525 25.165 11.0875 25.375 11.2625C25.55 11.4025 25.6025 11.595 25.62 11.735C25.6025 11.84 25.6375 12.155 25.62 12.4Z" fill="#696563"/>
</svg>
