<svg width="35" height="36" viewBox="0 0 35 36" fill="none" xmlns="http://www.w3.org/2000/svg">
<path d="M35 6.64589C33.7118 7.23145 32.3231 7.61625 30.8843 7.80028C32.3566 6.91357 33.4943 5.50822 34.0296 3.81845C32.641 4.65497 31.1018 5.24053 29.479 5.57514C28.1573 4.13633 26.3002 3.2998 24.1922 3.2998C20.2605 3.2998 17.0483 6.51204 17.0483 10.4771C17.0483 11.046 17.1152 11.5981 17.2323 12.1167C11.2763 11.8156 5.97275 8.95468 2.44264 4.62151C1.82361 5.67552 1.47228 6.91357 1.47228 8.21854C1.47228 10.7114 2.72706 12.9198 4.66778 14.1746C3.47992 14.1746 2.37572 13.84 1.40535 13.338V13.3882C1.40535 16.8682 3.88145 19.7793 7.16061 20.4317C6.10781 20.7198 5.00255 20.7599 3.93164 20.5489C4.38605 21.9751 5.27599 23.2231 6.47637 24.1173C7.67674 25.0116 9.12718 25.5072 10.6238 25.5345C8.08686 27.5429 4.94215 28.6285 1.7065 28.6129C1.13767 28.6129 0.568834 28.5794 0 28.5125C3.17878 30.5536 6.95985 31.7415 11.0086 31.7415C24.1922 31.7415 31.4364 20.7998 31.4364 11.3137C31.4364 10.9958 31.4364 10.6946 31.4197 10.3768C32.825 9.37294 34.0296 8.10143 35 6.64589Z" fill="#696563"/>
</svg>
