<svg width="35" height="36" viewBox="0 0 35 36" fill="none" xmlns="http://www.w3.org/2000/svg">
<path d="M17.5 0.5C27.1653 0.5 35 8.33475 35 18C35 27.6652 27.1653 35.5 17.5 35.5C14.5214 35.5044 11.5915 34.7452 8.98976 33.295L8.45601 32.9835L3.15001 34.5445C2.86127 34.6296 2.55558 34.6395 2.26192 34.5733C1.96826 34.5072 1.69636 34.3671 1.472 34.1664C1.24765 33.9657 1.07827 33.711 0.979915 33.4265C0.881564 33.142 0.857504 32.8371 0.910015 32.5407L0.955515 32.35L2.51651 27.044C0.866193 24.3163 -0.00422457 21.1881 1.54167e-05 18C1.54167e-05 8.33475 7.83476 0.5 17.5 0.5ZM17.5 4C14.9934 3.99954 12.5326 4.6721 10.3746 5.94742C8.21662 7.22275 6.44063 9.05407 5.2321 11.2501C4.02356 13.4462 3.4268 15.9265 3.50414 18.4319C3.58148 20.9374 4.33008 23.3761 5.67176 25.4935C6.01826 26.0395 6.16701 26.7115 6.04976 27.3782L5.98151 27.6635L5.20976 30.2902L7.83651 29.5185C8.59426 29.2945 9.38176 29.431 10.0065 29.8282C11.8411 30.9899 13.9207 31.7088 16.081 31.9283C18.2413 32.1478 20.423 31.8617 22.4537 31.0928C24.4844 30.3238 26.3084 29.093 27.7816 27.4977C29.2547 25.9024 30.3365 23.9863 30.9415 21.9009C31.5466 19.8155 31.6582 17.6179 31.2677 15.4819C30.8771 13.3459 29.9951 11.33 28.6912 9.59366C27.3874 7.85726 25.6975 6.44795 23.7552 5.47714C21.8129 4.50633 19.6714 4.00062 17.5 4ZM12.4285 9.572C12.6223 9.48809 12.8345 9.45607 13.0444 9.47909C13.2543 9.5021 13.4545 9.57935 13.6255 9.70325C14.5075 10.3472 15.2075 11.2117 15.8095 12.0552L16.3818 12.8847L16.6495 13.2785C16.804 13.5044 16.8798 13.7748 16.8653 14.0481C16.8507 14.3214 16.7466 14.5823 16.569 14.7905L16.4378 14.9235L14.8208 16.124C14.7429 16.1803 14.6882 16.263 14.6666 16.3566C14.6451 16.4503 14.6582 16.5485 14.7035 16.6332C15.071 17.2982 15.7203 18.2905 16.4658 19.036C17.213 19.7815 18.2508 20.4745 18.9613 20.8822C19.1153 20.9697 19.3008 20.9417 19.4268 20.828L19.4933 20.7492L20.545 19.148C20.7381 18.8908 21.0232 18.7183 21.3407 18.6668C21.6581 18.6152 21.9832 18.6886 22.2478 18.8715L23.198 19.5347C24.143 20.2085 25.0513 20.933 25.7705 21.8517C25.9043 22.0241 25.9893 22.2291 26.0167 22.4456C26.0441 22.662 26.0128 22.8818 25.9263 23.082C25.2333 24.699 23.478 26.0762 21.6545 26.0097L21.3763 25.9922L21.042 25.9607C20.9789 25.9533 20.9159 25.9451 20.853 25.9362L20.4365 25.8662C18.8195 25.5617 16.2278 24.6447 13.5415 21.9602C10.857 19.274 9.94001 16.6822 9.63551 15.0652L9.56551 14.6487L9.52176 14.2847L9.49901 13.9785C9.49624 13.9348 9.49391 13.891 9.49201 13.8472C9.42551 12.0202 10.8098 10.265 12.4285 9.572Z" fill="#696563"/>
</svg>
