<svg width="35" height="36" viewBox="0 0 35 36" fill="none" xmlns="http://www.w3.org/2000/svg">
<path d="M17.6127 6.1001H17.8074C19.6056 6.10666 28.7171 6.17229 31.1738 6.83296C31.9165 7.03459 32.5933 7.4276 33.1365 7.97273C33.6797 8.51786 34.0703 9.19601 34.2693 9.9394C34.4903 10.7707 34.6456 11.8711 34.7506 13.0065L34.7725 13.234L34.8206 13.8028L34.8381 14.0303C34.9803 16.0298 34.9978 17.9024 35 18.3115V18.4756C34.9978 18.9 34.9781 20.8995 34.8206 22.9821L34.8031 23.2118L34.7834 23.4393C34.674 24.6906 34.5122 25.9332 34.2693 26.8476C34.0709 27.5913 33.6805 28.2698 33.1372 28.815C32.5939 29.3602 31.9168 29.7531 31.1738 29.9541C28.6362 30.6366 18.9909 30.6848 17.6542 30.6869H17.3436C16.6676 30.6869 13.8718 30.6738 10.9404 30.5732L10.5685 30.5601L10.3781 30.5513L10.0041 30.536L9.62998 30.5207C7.2017 30.4135 4.88937 30.2407 3.82399 29.9519C3.08126 29.7511 2.40436 29.3586 1.86108 28.8138C1.3178 28.2689 0.927223 27.5909 0.728483 26.8476C0.485655 25.9354 0.32377 24.6906 0.214388 23.4393L0.196887 23.2096L0.179386 22.9821C0.0714211 21.4997 0.0115942 20.0143 0 18.5281L0 18.259C0.00437527 17.7886 0.0218764 16.1632 0.140009 14.3694L0.155322 14.144L0.161885 14.0303L0.179386 13.8028L0.227514 13.234L0.249391 13.0065C0.354397 11.8711 0.509719 10.7685 0.730671 9.9394C0.929075 9.19571 1.3195 8.51724 1.8628 7.97202C2.4061 7.4268 3.08319 7.03398 3.82618 6.83296C4.89156 6.54856 7.20389 6.37355 9.63216 6.26417L10.0041 6.24886L10.3803 6.23573L10.5685 6.22917L10.9426 6.21386C13.0246 6.14686 15.1074 6.10966 17.1905 6.10229H17.6127V6.1001ZM14.0009 13.1224V23.6624L23.0949 18.3946L14.0009 13.1224Z" fill="#696563"/>
</svg>
